<?xml version="1.0" standalone="no"?>
<!DOCTYPE svg PUBLIC "-//W3C//DTD SVG 20010904//EN"
 "http://www.w3.org/TR/2001/REC-SVG-20010904/DTD/svg10.dtd">
<!-- Generator: Adobe Illustrator 25.2.1, SVG Export Plug-In  -->
<svg version="1.1" xmlns="http://www.w3.org/2000/svg" xmlns:xlink="http://www.w3.org/1999/xlink" x="0px" y="0px"
	 width="743.43px" height="158.96px" viewBox="0 0 743.43 158.96"
	 style="overflow:visible;enable-background:new 0 0 743.43 158.96;" xml:space="preserve">
<style type="text/css">
	.st0{fill:#FFD503;}
</style>
<defs>
</defs>
<g>
	<path class="st0" d="M0,151.03l12.34-2.78c1.32-0.34,2.38-1,3.24-2.01c0.86-0.99,1.29-2.24,1.29-3.76V73.92
		c0-1.71-0.46-3.16-1.38-4.32c-0.95-1.18-2.5-2.14-4.7-2.88L0.4,63v-3.5l34.4-6.9v89.88c0,1.59,0.4,2.85,1.23,3.82
		c0.8,0.96,1.92,1.61,3.3,1.95l11.53,2.78v5.15H0V151.03z M24.59,28.93c-1.78,0-3.44-0.33-4.99-0.99c-1.52-0.65-2.9-1.52-4.05-2.62
		c-1.18-1.09-2.09-2.4-2.78-3.9c-0.69-1.52-1.03-3.2-1.03-5.05c0-1.78,0.34-3.46,1.03-4.99c0.69-1.55,1.61-2.88,2.78-4.02
		c1.15-1.13,2.52-2.01,4.05-2.62c1.55-0.62,3.21-0.93,4.99-0.93c1.81,0,3.5,0.32,5.11,0.93s3.01,1.48,4.22,2.57
		c1.2,1.1,2.12,2.41,2.78,3.92s0.98,3.16,0.98,4.95c0,1.85-0.32,3.56-0.98,5.14c-0.66,1.59-1.58,2.93-2.78,4.02
		c-1.2,1.1-2.61,1.98-4.22,2.62C28.09,28.6,26.39,28.93,24.59,28.93z"/>
	<path class="st0" d="M75.36,21.52c0-1.79-0.49-3.24-1.46-4.37c-0.95-1.13-2.5-2.11-4.62-2.94l-10.1-3.8V6.9L93.15,0v63.93v5.35
		c2.81-4.05,5.77-7.27,8.86-9.68c3.1-2.4,6.08-4.16,9.01-5.29s5.65-1.86,8.23-2.21c2.58-0.34,4.73-0.52,6.43-0.52
		c6.34,0,11.96,1.23,16.9,3.7c4.93,2.47,9.12,5.91,12.57,10.3c3.41,4.39,6.05,9.64,7.86,15.75c1.84,6.11,2.73,12.79,2.73,20.08
		c0,7.96-1.09,15.43-3.33,22.43c-2.24,7-5.51,13.11-9.78,18.33c-4.3,5.22-9.55,9.31-15.75,12.31c-6.23,2.98-13.31,4.48-21.26,4.48
		c-3.1,0-6.28-0.14-9.58-0.42c-3.3-0.27-6.63-0.77-9.98-1.49c-3.36-0.72-6.8-1.68-10.3-2.88s-6.97-2.73-10.39-4.58V21.52z
		 M93.15,142.08c0.98,1.02,2.32,2.07,4.07,3.14c1.75,1.06,3.61,2.05,5.62,2.98c1.98,0.92,3.99,1.66,6.02,2.21
		c2.01,0.55,3.84,0.82,5.51,0.82c5.54,0,10.39-1.18,14.52-3.54c4.1-2.37,7.52-5.52,10.18-9.47c2.67-3.96,4.68-8.51,5.97-13.66
		c1.32-5.14,1.95-10.46,1.95-15.95c0-6.45-0.6-12.42-1.84-17.92c-1.23-5.49-3.13-10.23-5.68-14.2c-2.52-3.99-5.77-7.11-9.67-9.38
		c-3.9-2.25-8.61-3.39-14.11-3.39c-1.58,0-3.36,0.19-5.34,0.56c-2.01,0.37-4.02,0.98-6.08,1.81c-2.07,0.82-4.05,1.97-5.97,3.44
		c-1.92,1.48-3.64,3.28-5.16,5.41V142.08z"/>
	<path class="st0" d="M181.88,151.03l11.65-2.78c1.38-0.34,2.5-1,3.36-2.01c0.83-0.99,1.26-2.24,1.26-3.76V74.13
		c0-1.79-0.49-3.3-1.49-4.53c-0.98-1.23-2.55-2.24-4.68-2.98L182,62.9v-3.6l32.73-6.8v22.75h0.2c1.92-3.01,3.96-5.92,6.08-8.75
		c2.12-2.81,4.48-5.31,7.06-7.52c2.58-2.19,5.36-3.97,8.35-5.35c2.98-1.36,6.28-2.05,9.93-2.05c1.86,0,3.5,0.09,4.93,0.26
		c1.46,0.17,2.78,0.4,3.96,0.72c1.2,0.3,2.35,0.69,3.41,1.13c1.06,0.44,2.18,0.95,3.33,1.49v24.4h-6.48l-3.27-8.55
		c-0.29-0.69-0.86-1.31-1.72-1.85c-0.86-0.55-1.84-0.99-2.98-1.33c-1.12-0.34-2.3-0.62-3.56-0.83c-1.23-0.2-2.38-0.3-3.5-0.3
		c-2.52,0-4.91,0.34-7.14,1.03c-2.24,0.67-4.36,1.66-6.37,2.93c-2.04,1.28-3.93,2.81-5.74,4.63c-1.78,1.82-3.53,3.86-5.25,6.12
		v61.05c0,1.59,0.43,2.85,1.23,3.82c0.83,0.96,1.92,1.61,3.3,1.95l13.8,2.78v5.15h-52.41V151.03z"/>
	<path class="st0" d="M334.19,141.15c-2.5,3.7-5.16,6.67-8.09,8.91c-2.93,2.22-5.88,3.96-8.92,5.19c-3.01,1.25-5.97,2.05-8.89,2.42
		c-2.93,0.37-5.62,0.57-8.09,0.57c-4.1,0-7.8-0.75-11.1-2.22c-3.3-1.48-6.14-3.46-8.49-5.97c-2.38-2.51-4.22-5.41-5.51-8.71
		c-1.32-3.28-1.98-6.76-1.98-10.39c0-4.33,0.77-8.18,2.27-11.53c1.52-3.37,3.56-6.33,6.08-8.86c2.55-2.54,5.45-4.69,8.75-6.48
		c3.3-1.78,6.68-3.24,10.18-4.37c3.5-1.13,7.03-1.95,10.56-2.47c3.56-0.52,6.86-0.77,9.95-0.77c0.6,0,1.52,0.06,2.78,0.16
		c1.23,0.1,2.5,0.2,3.84,0.3c1.35,0.11,2.64,0.22,3.9,0.32c1.29,0.1,2.27,0.16,2.95,0.16l0.09-17.92c0-3.43-0.32-6.28-0.98-8.55
		s-1.64-4.07-2.93-5.41c-1.29-1.33-2.95-2.27-4.93-2.78c-2.01-0.5-4.33-0.76-7-0.76c-3.39,0-6.68,0.56-9.95,1.69
		c-3.24,1.13-6.31,2.54-9.21,4.22c-2.87,1.69-5.57,3.44-8.03,5.25c-2.47,1.82-4.56,3.39-6.28,4.69h-2.55l-2.78-16.98
		c2.18-1.1,4.56-2.19,7.09-3.3c2.55-1.1,5.28-2.09,8.2-2.98c2.9-0.89,6.02-1.62,9.29-2.17c3.3-0.55,6.8-0.82,10.5-0.82
		c4.33,0,8.72,0.56,13.2,1.69c4.45,1.13,8.49,2.97,12.11,5.51c3.59,2.54,6.51,5.95,8.78,10.24s3.39,9.52,3.3,15.71l-0.52,54.56
		c0,1.03,0.2,1.97,0.57,2.83c0.37,0.86,0.95,1.61,1.69,2.22c0.77,0.62,1.66,1.08,2.73,1.38c1.06,0.32,2.32,0.47,3.76,0.47
		c0.43,0,1-0.07,1.75-0.22c0.77-0.13,1.61-0.3,2.52-0.5c0.95-0.22,1.86-0.46,2.78-0.73s1.75-0.52,2.41-0.72h1.15v5.57
		c-0.98,0.75-2.24,1.62-3.82,2.62c-1.58,0.99-3.3,1.94-5.14,2.83c-1.86,0.89-3.76,1.65-5.71,2.27c-1.98,0.62-3.84,0.93-5.62,0.93
		c-2.67,0-5.05-0.3-7.11-0.87c-2.04-0.59-3.79-1.53-5.19-2.84c-1.41-1.31-2.44-3.06-3.1-5.25c-0.63-2.19-0.98-4.91-0.98-8.13H334.19
		z M282.49,19.97h65.47V31.7h-65.47V19.97z M334.39,103.36c-6.4,0-12.19,0.43-17.41,1.29c-5.22,0.86-9.64,2.22-13.28,4.12
		c-3.64,1.88-6.45,4.33-8.43,7.36c-1.98,3.03-2.98,6.66-2.98,10.92c0,3.63,0.55,6.67,1.64,9.11c1.12,2.44,2.52,4.4,4.25,5.92
		c1.69,1.51,3.64,2.58,5.8,3.24c2.18,0.65,4.25,0.98,6.23,0.98c2.01,0,4.13-0.2,6.4-0.62c2.27-0.42,4.45-1.06,6.6-1.95
		c2.12-0.9,4.13-2.04,6.05-3.4c1.92-1.38,3.59-3.03,4.96-4.95L334.39,103.36z"/>
	<path class="st0" d="M377.82,151.03l11.33-2.78c1.43-0.4,2.55-1.08,3.33-2.01c0.8-0.92,1.2-2.14,1.2-3.64V21.52
		c0-1.79-0.46-3.24-1.35-4.37c-0.89-1.13-2.44-2.11-4.65-2.94l-10.07-3.8V6.9L411.59,0v63.83v5.45c2.87-3.92,5.71-7.01,8.49-9.31
		c2.78-2.31,5.48-4.07,8.15-5.31c2.64-1.23,5.25-2.07,7.86-2.47c2.61-0.42,5.25-0.62,7.92-0.62c4.48,0,8.69,0.69,12.68,2.05
		c3.99,1.38,7.46,3.5,10.44,6.38c2.98,2.88,5.34,6.6,7.06,11.12c1.72,4.53,2.58,9.95,2.58,16.27v54.68c0,1.71,0.43,3.07,1.29,4.06
		c0.83,1,1.92,1.71,3.24,2.11l10.07,2.78v5.15H443.2v-5.15l11.3-2.78c1.18-0.34,2.18-1.02,3.04-2.05c0.86-1.03,1.29-2.41,1.29-4.12
		V94.3c0-4.66-0.26-8.86-0.83-12.61c-0.55-3.74-1.64-6.93-3.27-9.57c-1.66-2.65-3.96-4.69-6.91-6.14
		c-2.95-1.43-6.83-2.15-11.62-2.15c-2.07,0-4.22,0.2-6.48,0.62c-2.27,0.42-4.5,1.05-6.66,1.91c-2.15,0.85-4.25,1.97-6.23,3.34
		c-1.98,1.38-3.73,3.01-5.25,4.93v67.85c0,1.59,0.4,2.84,1.23,3.76c0.83,0.93,1.92,1.61,3.3,2.01l9.78,2.78v5.15h-48.08V151.03z"/>
	<path class="st0" d="M506.75,37.47c-1.52,0-2.95-0.29-4.33-0.87c-1.38-0.57-2.55-1.35-3.56-2.31c-1-0.96-1.81-2.12-2.41-3.5
		c-0.63-1.38-0.95-2.85-0.95-4.43c0-1.65,0.32-3.14,0.89-4.48s1.38-2.52,2.41-3.56c1.03-1.02,2.21-1.81,3.56-2.37
		c1.35-0.55,2.81-0.82,4.39-0.82s3.07,0.29,4.5,0.87c1.46,0.59,2.7,1.35,3.76,2.31c1.09,0.96,1.89,2.11,2.5,3.46
		c0.57,1.33,0.86,2.8,0.86,4.37c0,1.65-0.32,3.16-0.92,4.53c-0.63,1.36-1.43,2.55-2.47,3.54c-1.03,1-2.27,1.79-3.73,2.37
		C509.82,37.18,508.33,37.47,506.75,37.47z M504.17,151.03l12.36-2.78c1.29-0.34,2.38-1,3.24-2.01c0.83-0.99,1.26-2.24,1.26-3.76
		V73.92c0-1.71-0.46-3.16-1.38-4.32c-0.92-1.18-2.5-2.14-4.68-2.88L504.57,63v-3.5l34.28-6.9v89.88c0,1.59,0.43,2.85,1.29,3.82
		c0.86,0.96,1.95,1.61,3.24,1.95l11.53,2.78v5.15h-50.75V151.03z M547.4,37.47c-1.52,0-2.95-0.29-4.33-0.87
		c-1.35-0.57-2.55-1.35-3.53-2.31c-1-0.96-1.81-2.12-2.44-3.5c-0.6-1.38-0.92-2.85-0.92-4.43c0-1.65,0.29-3.14,0.86-4.48
		c0.6-1.33,1.41-2.52,2.44-3.56c1.03-1.02,2.21-1.81,3.56-2.37c1.32-0.55,2.78-0.82,4.36-0.82c1.58,0,3.1,0.29,4.53,0.87
		c1.43,0.59,2.7,1.35,3.76,2.31c1.06,0.96,1.89,2.11,2.47,3.46c0.57,1.33,0.89,2.8,0.89,4.37c0,1.65-0.32,3.16-0.89,4.53
		c-0.57,1.36-1.41,2.55-2.47,3.54c-1.06,1-2.32,1.79-3.76,2.37C550.5,37.18,548.98,37.47,547.4,37.47z"/>
	<path class="st0" d="M568.28,151.23l11.45-2.87c1.35-0.34,2.44-1.03,3.24-2.07c0.77-1.03,1.18-2.3,1.18-3.82V73.81
		c0-1.72-0.46-3.14-1.35-4.27c-0.89-1.13-2.41-2.08-4.53-2.83L568.28,63v-3.5l32.96-7v16.78h0.2c2.52-3.43,5.05-6.28,7.57-8.55
		c2.5-2.25,5.08-4.06,7.72-5.39c2.64-1.35,5.34-2.31,8.12-2.88c2.78-0.59,5.71-0.87,8.81-0.87c3.3,0,6.48,0.37,9.58,1.13
		c3.07,0.75,5.91,1.92,8.49,3.5c2.58,1.58,4.85,3.6,6.8,6.07c1.95,2.47,3.44,5.47,4.48,8.97c3.36-4.68,6.54-8.31,9.58-10.92
		c3.01-2.61,5.94-4.55,8.75-5.82c2.81-1.26,5.54-2.07,8.18-2.41c2.64-0.34,5.19-0.52,7.66-0.52c4.39,0,8.52,0.69,12.36,2.05
		c3.84,1.38,7.2,3.5,10.04,6.38c2.84,2.88,5.11,6.6,6.74,11.12c1.64,4.53,2.47,9.95,2.47,16.27v55.2c0,1.51,0.43,2.73,1.29,3.64
		c0.86,0.93,1.95,1.61,3.24,2.01l10.1,2.78v5.15h-48v-4.95l11.13-2.87c1.38-0.34,2.44-1.03,3.24-2.07c0.77-1.03,1.18-2.34,1.18-3.92
		V94.3c0-4.66-0.26-8.86-0.8-12.61c-0.57-3.74-1.58-6.93-3.04-9.57c-1.49-2.65-3.64-4.69-6.48-6.14c-2.87-1.43-6.6-2.15-11.19-2.15
		c-1.92,0-3.99,0.2-6.17,0.62c-2.21,0.42-4.39,1.05-6.54,1.91c-2.15,0.85-4.22,1.98-6.17,3.39c-1.98,1.42-3.7,3.11-5.22,5.11v67.75
		c0,1.58,0.43,2.81,1.29,3.7c0.86,0.89,1.95,1.55,3.24,1.95l9.78,2.78v5.15h-47.57v-4.95l11.02-2.87c1.38-0.34,2.47-1.02,3.24-2.01
		c0.8-1,1.2-2.25,1.2-3.76V94.3c0-4.66-0.29-8.86-0.83-12.61c-0.55-3.74-1.58-6.93-3.1-9.57c-1.49-2.65-3.67-4.69-6.48-6.14
		c-2.81-1.43-6.54-2.15-11.22-2.15c-2.07,0-4.19,0.2-6.4,0.62c-2.18,0.42-4.36,1.05-6.48,1.91c-2.12,0.85-4.13,1.97-6.05,3.34
		c-1.92,1.38-3.61,3.01-5.05,4.93v67.85c-0.14,1.59,0.26,2.84,1.18,3.76c0.92,0.93,2.04,1.61,3.36,2.01l9.87,2.78v5.15h-48.08
		V151.23z"/>
</g>
</svg>
